# xmcd CD database file
#
# Track frame offsets:
#	150
#	17973
#	39246
#	56394
#	82242
#	107565
#	128013
#	157311
#	174459
#	197832
#	226755
#	244503
#	263151
#	278349
#	303147
#	322170
#
# Disc length: 4548 seconds
#
# Revision: 0
# Processed by: cddbd v1.5.2PL0 Copyright (c) Steve Scherf et al.
# Submitted via: CDex 1.70beta2
#
DISCID=ce11c210
DTITLE=SCORPIONS - The best of SCORPIONS
DYEAR=2008
DGENRE=Pop Metal
TTITLE0=SCORPIONS - No one like you
TTITLE1=SCORPIONS - Tease me, please me
TTITLE2=SCORPIONS - Blackout
TTITLE3=SCORPIONS - Alien nation
TTITLE4=SCORPIONS - Loving you sunday morning
TTITLE5=SCORPIONS - Send me an angel
TTITLE6=SCORPIONS - Holiday
TTITLE7=SCORPIONS - Rhythm of love
TTITLE8=SCORPIONS - Wind of change
TTITLE9=SCORPIONS - Still loving you
TTITLE10=SCORPIONS - Bad boys running wild
TTITLE11=SCORPIONS - Big city nights
TTITLE12=SCORPIONS - I can't explain
TTITLE13=SCORPIONS - The zoo
TTITLE14=SCORPIONS - Dynamite
TTITLE15=SCORPIONS - Rock you like a hurricane
EXTD=YEAR: 2008
EXTT0=
EXTT1=
EXTT2=
EXTT3=
EXTT4=
EXTT5=
EXTT6=
EXTT7=
EXTT8=
EXTT9=
EXTT10=
EXTT11=
EXTT12=
EXTT13=
EXTT14=
EXTT15=
PLAYORDER=
